{"title":"Outsiders S01E11 MORTAR HDTV SWESUB 2016","uid":14209198,"size":357636099,"categoryP":"video","categoryS":"hd___tv_shows","magnet":"?xt=urn:btih:8d7ac0afe60fc53826d684e29329c44553e2c4cc&amp;dn=Outsiders+S01E11+MORTAR+HDTV+SWESUB+2016&amp;tr=udp%3A%2F%2Ftracker.leechers-paradise.org%3A6969&amp;tr=udp%3A%2F%2Fzer0day.ch%3A1337&amp;tr=udp%3A%2F%2Fopen.demonii.com%3A1337&amp;tr=udp%3A%2F%2Ftracker.coppersurfer.tk%3A6969&amp;tr=udp%3A%2F%2Fexodus.desync.com%3A6969","seeders":0,"leechers":1,"uploader":"hoyabella","files":1,"time":1459986468,"description":"\n\r\n\r\n\r\n                 Outsiders S01E11 MORTAR HDTV SWESUB 2016\r\n\r\n\r\n\r\n\r\n             http://www.imdb.com/title/tt4816626/?ref_=ttfc_fc_tt\r\n\r\n\r\n\r\nFormat                      : MPEG-4 Visual\r\nFormat profile              :   \r\nFormat settings, BVOP       : No\r\nFormat settings, QPel       : No\r\nFormat settings, GMC        : No warppoints\r\nFormat settings, Matrix     : Default (H.263)\r\nCodec ID                    : 20\r\nDuration                    : 45mn 54s\r\nBit rate                    : 1 024 Kbps\r\nWidth                       : 720 pixels\r\nHeight                      : 404 pixels\r\nDisplay aspect ratio        : 16:9\r\nFrame rate mode             : Constant\r\nFrame rate                  : 23.976 (24000/1001) fps\r\nColor space                 : YUV\r\nChroma subsampling          : 4:2:0\r\nBit depth                   : 8 bits\r\nScan type                   : Progressive\r\nCompression mode            : Lossy\r\nBits/(Pixel*Frame)          : 0.147\r\nStream size                 : 336 MiB (87%)\r\nWriting library             : Lavc51.40.4\r\nEncoded date                : UTC 2016-03-30 16:55:37\r\nTagged date                 : UTC 2016-03-30 16:55:37\r\n\r\nAudio\r\nID                          : 2\r\nFormat                      : AAC\r\nFormat/Info                 : Advanced Audio Codec\r\nFormat profile              : LC\r\nCodec ID                    : 40\r\nDuration                    : 45mn 54s\r\nBit rate mode               : Variable\r\nBit rate                    : 152 Kbps\r\nChannel(s)                  : 2 channels\r\nChannel positions           : Front: L R\r\nSampling rate               : 44.1 KHz\r\nFrame rate                  : 43.066 fps (1024 spf)\r\nCompression mode            : Lossy\r\nStream size                 : 49.9 MiB (13%)\r\nLanguage                    : English\r\nEncoded date                : UTC 2016-03-30 16:55:37\r\nTagged date                 : UTC 2016-03-30 16:55:37","torrent":{"xt":"urn:btih:8d7ac0afe60fc53826d684e29329c44553e2c4cc","amp;dn":"Outsiders+S01E11+MORTAR+HDTV+SWESUB+2016","amp;tr":["udp%3A%2F%2Ftracker.leechers-paradise.org%3A6969","udp%3A%2F%2Fzer0day.ch%3A1337","udp%3A%2F%2Fopen.demonii.com%3A1337","udp%3A%2F%2Ftracker.coppersurfer.tk%3A6969","udp%3A%2F%2Fexodus.desync.com%3A6969"],"infoHash":"8d7ac0afe60fc53826d684e29329c44553e2c4cc","infoHashBuffer":{"type":"Buffer","data":[141,122,192,175,230,15,197,56,38,214,132,226,147,41,196,69,83,226,196,204]},"announce":[],"urlList":[]}}